# Blender v2.79 (sub 0) OBJ File: 'greenhouse.blend'
# www.blender.org
o Cylinder
v -2.900000 0.018303 -0.999999
v 2.900000 0.018303 -0.999999
v -2.900000 0.018303 1.000001
v 2.900000 0.018304 1.000001
v -2.900000 0.213394 0.980786
v 2.900000 0.213394 0.980786
v -2.900001 0.400987 0.923880
v 2.900000 0.400987 0.923880
v -2.900001 0.573874 0.831470
v 2.900000 0.573874 0.831470
v -2.900001 0.725410 0.707107
v 2.900000 0.725410 0.707107
v -2.900001 0.849773 0.555570
v 2.900000 0.849773 0.555570
v -2.900001 0.942183 0.382683
v 2.900000 0.942183 0.382683
v -2.900001 0.999088 0.195090
v 2.900000 0.999089 0.195090
v -2.900001 1.018303 -0.000000
v 2.900000 1.018303 -0.000000
v -2.900001 0.999088 -0.195091
v 2.900000 0.999088 -0.195091
v -2.900001 0.942182 -0.382684
v 2.900000 0.942182 -0.382684
v -2.900001 0.849772 -0.555571
v 2.900000 0.849772 -0.555571
v -2.900001 0.725409 -0.707107
v 2.900000 0.725409 -0.707107
v -2.900001 0.573872 -0.831470
v 2.900000 0.573872 -0.831470
v -2.900001 0.400985 -0.923880
v 2.900000 0.400985 -0.923880
v -2.900000 0.213392 -0.980785
v 2.900000 0.213392 -0.980785
vt 0.470688 0.002323
vt 0.002796 0.031242
vt 0.002796 0.002309
vt 0.470687 0.060191
vt 0.002796 0.060178
vt 0.002795 0.089114
vt 0.470687 0.089125
vt 0.002795 0.118050
vt 0.470687 0.118059
vt 0.002795 0.146986
vt 0.470687 0.146994
vt 0.002795 0.175922
vt 0.470686 0.175928
vt 0.002795 0.204858
vt 0.470686 0.204862
vt 0.002794 0.233794
vt 0.470686 0.262730
vt 0.002794 0.262730
vt 0.002794 0.291666
vt 0.470686 0.291664
vt 0.002794 0.320602
vt 0.470686 0.320598
vt 0.002794 0.349536
vt 0.470686 0.349532
vt 0.002795 0.378472
vt 0.470686 0.378466
vt 0.002795 0.407408
vt 0.470687 0.407400
vt 0.002795 0.436341
vt 0.470687 0.436335
vt 0.002795 0.465274
vt 0.470688 0.031257
vt 0.470686 0.233796
vt 0.470687 0.465268
vn 0.0000 0.0980 0.9952
vn 0.0000 0.1951 0.9808
vn 0.0000 0.3827 0.9239
vn 0.0000 0.5556 0.8314
vn 0.0000 0.7071 0.7071
vn 0.0000 0.8314 0.5556
vn 0.0000 0.9239 0.3827
vn 0.0000 0.9808 0.1951
vn 0.0000 1.0000 0.0000
vn 0.0000 0.9808 -0.1951
vn 0.0000 0.9239 -0.3827
vn 0.0000 0.8314 -0.5556
vn 0.0000 0.7071 -0.7071
vn 0.0000 0.5556 -0.8314
vn 0.0000 0.3827 -0.9239
vn 0.0000 0.1951 -0.9808
vn 0.0000 0.0980 -0.9952
s 1
f 4/1/1 5/2/2 3/3/1
f 5/2/2 8/4/3 7/5/3
f 8/4/3 9/6/4 7/5/3
f 10/7/4 11/8/5 9/6/4
f 12/9/5 13/10/6 11/8/5
f 14/11/6 15/12/7 13/10/6
f 16/13/7 17/14/8 15/12/7
f 18/15/8 19/16/9 17/14/8
f 19/16/9 22/17/10 21/18/10
f 22/17/10 23/19/11 21/18/10
f 24/20/11 25/21/12 23/19/11
f 26/22/12 27/23/13 25/21/12
f 28/24/13 29/25/14 27/23/13
f 30/26/14 31/27/15 29/25/14
f 32/28/15 33/29/16 31/27/15
f 34/30/16 1/31/17 33/29/16
f 4/1/1 6/32/2 5/2/2
f 5/2/2 6/32/2 8/4/3
f 8/4/3 10/7/4 9/6/4
f 10/7/4 12/9/5 11/8/5
f 12/9/5 14/11/6 13/10/6
f 14/11/6 16/13/7 15/12/7
f 16/13/7 18/15/8 17/14/8
f 18/15/8 20/33/9 19/16/9
f 19/16/9 20/33/9 22/17/10
f 22/17/10 24/20/11 23/19/11
f 24/20/11 26/22/12 25/21/12
f 26/22/12 28/24/13 27/23/13
f 28/24/13 30/26/14 29/25/14
f 30/26/14 32/28/15 31/27/15
f 32/28/15 34/30/16 33/29/16
f 34/30/16 2/34/17 1/31/17
