# Blender v2.79 (sub 0) OBJ File: 'solar_panel.blend'
# www.blender.org
o Plane
v -1.000000 0.434626 1.000000
v 1.000000 0.000000 1.000000
v -1.000000 0.434626 -1.000000
v 1.000000 0.000000 -1.000000
v -1.000000 0.503029 1.000000
v 1.000000 0.068404 1.000000
v -1.000000 0.503029 -1.000000
v 1.000000 0.068404 -1.000000
v -0.500000 0.000000 0.500000
v -0.500000 0.000000 -0.500000
v -0.750000 0.384460 -0.750000
v -0.500000 0.000000 0.750000
v -0.750000 0.000000 0.500000
v -0.500000 0.000000 -0.750000
v -0.750000 0.000000 -0.500000
v -0.750000 0.384460 -0.500000
v -0.750000 0.000000 -0.750000
v -0.750000 0.000000 0.750000
v -0.500000 0.384460 -0.750000
v -0.500000 0.384460 -0.500000
v -0.500000 0.382839 0.750000
v -0.500000 0.382839 0.500000
v -0.750000 0.382839 0.500000
v -0.750000 0.382839 0.750000
vt 0.985849 0.013837
vt 0.514151 0.483139
vt 0.514151 0.013837
vt -0.000031 0.002501
vt 0.997368 1.000539
vt -0.000031 1.000539
vt 0.099429 0.778221
vt 0.105500 0.951801
vt 0.099429 0.951801
vt 0.088391 0.961849
vt 0.081827 0.774201
vt 0.088391 0.774201
vt 0.078701 0.769015
vt 0.085229 0.963066
vt 0.078701 0.964453
vt 0.081097 0.766683
vt 0.074514 0.962384
vt 0.074514 0.765284
vt 0.071420 0.737812
vt 0.130382 0.649149
vt 0.130382 0.737812
vt 0.101415 0.602175
vt 0.160377 0.513512
vt 0.160377 0.602175
vt 0.363208 0.717765
vt 0.422170 0.629475
vt 0.422170 0.717765
vt 0.134610 0.643121
vt 0.075648 0.731784
vt 0.075648 0.643121
vt 0.247304 0.687503
vt 0.188679 0.629849
vt 0.247304 0.629849
vt 0.135971 0.641614
vt 0.077009 0.730277
vt 0.077009 0.641614
vt 0.363208 0.601801
vt 0.422170 0.513512
vt 0.422170 0.601801
vt 0.071420 0.740745
vt 0.130382 0.652455
vt 0.130382 0.740745
vt 0.160377 0.629849
vt 0.101415 0.718138
vt 0.101415 0.629849
vt 0.985849 0.483138
vt 0.997368 0.002501
vt 0.105500 0.778221
vt 0.081827 0.961849
vt 0.085229 0.767628
vt 0.081097 0.963783
vt 0.071420 0.649149
vt 0.101415 0.513512
vt 0.363208 0.629475
vt 0.134610 0.731784
vt 0.188679 0.687503
vt 0.135971 0.730277
vt 0.363208 0.513512
vt 0.071420 0.652455
vt 0.160377 0.718138
vn -0.2124 -0.9772 0.0000
vn 0.2124 0.9772 0.0000
vn 1.0000 0.0000 0.0000
vn -1.0000 0.0000 0.0000
vn 0.0000 0.0000 -1.0000
vn 0.0000 0.0000 1.0000
vn 0.0000 -1.0000 0.0000
s off
f 3/1/1 2/2/1 1/3/1
f 6/4/2 7/5/2 5/6/2
f 4/7/3 6/8/3 2/9/3
f 1/10/4 7/11/4 3/12/4
f 3/13/5 8/14/5 4/15/5
f 1/16/6 6/17/6 5/18/6
f 10/19/6 16/20/6 15/21/6
f 15/22/4 11/23/4 17/24/4
f 18/25/4 23/26/4 13/27/4
f 17/28/5 19/29/5 14/30/5
f 17/31/7 10/32/7 15/33/7
f 14/34/3 20/35/3 10/36/3
f 9/37/3 21/38/3 12/39/3
f 12/40/6 24/41/6 18/42/6
f 13/43/5 22/44/5 9/45/5
f 3/1/1 4/46/1 2/2/1
f 6/4/2 8/47/2 7/5/2
f 4/7/3 8/48/3 6/8/3
f 1/10/4 5/49/4 7/11/4
f 3/13/5 7/50/5 8/14/5
f 1/16/6 2/51/6 6/17/6
f 10/19/6 20/52/6 16/20/6
f 15/22/4 16/53/4 11/23/4
f 18/25/4 24/54/4 23/26/4
f 17/28/5 11/55/5 19/29/5
f 17/31/7 14/56/7 10/32/7
f 14/34/3 19/57/3 20/35/3
f 9/37/3 22/58/3 21/38/3
f 12/40/6 21/59/6 24/41/6
f 13/43/5 23/60/5 22/44/5
