# Blender v2.79 (sub 0) OBJ File: 'windturbine.blend'
# www.blender.org
o Circle
v -0.000000 0.000000 -0.648561
v -0.126528 0.000000 -0.636100
v -0.248194 0.000000 -0.599193
v -0.360321 0.000000 -0.539259
v -0.458602 0.000000 -0.458602
v -0.539259 0.000000 -0.360321
v -0.599193 0.000000 -0.248194
v -0.636099 0.000000 -0.126528
v -0.648561 0.000000 -0.000000
v -0.636100 0.000000 0.126528
v -0.599193 0.000000 0.248194
v -0.539259 0.000000 0.360321
v -0.458602 0.000000 0.458602
v -0.360321 0.000000 0.539259
v -0.248194 0.000000 0.599193
v -0.126528 0.000000 0.636099
v 0.000000 0.000000 0.648561
v 0.126528 0.000000 0.636099
v 0.248194 0.000000 0.599192
v 0.360322 0.000000 0.539259
v 0.458602 0.000000 0.458602
v 0.539259 0.000000 0.360321
v 0.599193 0.000000 0.248193
v 0.636100 0.000000 0.126527
v 0.648561 0.000000 -0.000001
v 0.636099 0.000000 -0.126529
v 0.599192 0.000000 -0.248194
v 0.539259 0.000000 -0.360322
v 0.458602 0.000000 -0.458603
v 0.360321 0.000000 -0.539260
v 0.248193 0.000000 -0.599193
v 0.126527 0.000000 -0.636100
v -0.000000 6.302557 -0.374147
v -0.072992 6.302557 -0.366957
v -0.143180 6.302557 -0.345666
v -0.207865 6.302557 -0.311092
v -0.264562 6.302557 -0.264562
v -0.311091 6.302557 -0.207865
v -0.345666 6.302557 -0.143180
v -0.366957 6.302557 -0.072993
v -0.374147 6.302557 -0.000000
v -0.366957 6.302557 0.072992
v -0.345666 6.302557 0.143179
v -0.311091 6.302557 0.207864
v -0.264562 6.302557 0.264561
v -0.207865 6.302557 0.311091
v -0.143180 6.302557 0.345666
v -0.072992 6.302557 0.366957
v 0.000000 6.302557 0.374146
v 0.072992 6.302557 0.366957
v 0.143180 6.302557 0.345666
v 0.207865 6.302557 0.311091
v 0.264562 6.302557 0.264561
v 0.311091 6.302557 0.207864
v 0.345666 6.302557 0.143179
v 0.366957 6.302557 0.072992
v 0.374146 6.302557 -0.000001
v 0.366957 6.302557 -0.072993
v 0.345666 6.302557 -0.143180
v 0.311091 6.302557 -0.207865
v 0.264561 6.302557 -0.264562
v 0.207864 6.302557 -0.311092
v 0.143179 6.302557 -0.345667
v 0.072992 6.302557 -0.366958
v -1.000000 6.309992 0.300692
v -1.000000 6.965028 0.300692
v -1.000000 6.309992 -0.300692
v -1.000000 6.965028 -0.300692
v 1.000000 6.166508 0.432424
v 1.000000 7.108512 0.432424
v 1.000000 6.166508 -0.432424
v 1.000000 7.108512 -0.432424
v -1.000000 6.637510 0.397571
v -1.000000 6.637510 -0.397571
v 1.000000 6.637510 -0.571746
v 1.000000 6.637510 0.571746
vt 0.988499 0.724645
vt 0.004071 0.718307
vt 0.004259 0.738144
vt 0.988221 0.372685
vt 0.003857 0.361033
vt 0.003937 0.380870
vt 0.988707 0.741825
vt 0.004500 0.757981
vt 0.988337 0.389865
vt 0.004071 0.400708
vt 0.004794 0.777817
vt 0.989264 0.535668
vt 0.005543 0.500111
vt 0.005141 0.519943
vt 0.988499 0.407046
vt 0.004259 0.420545
vt 0.005143 0.797653
vt 0.988962 0.759005
vt 0.988962 0.552845
vt 0.004794 0.539777
vt 0.988708 0.424226
vt 0.004500 0.440382
vt 0.005544 0.817487
vt 0.989264 0.776183
vt 0.988707 0.570024
vt 0.004499 0.559611
vt 0.988963 0.441405
vt 0.004794 0.460218
vt 0.005141 0.202344
vt 0.989612 0.200893
vt 0.005543 0.182512
vt 0.004258 0.579447
vt 0.005143 0.480053
vt 0.004793 0.222178
vt 0.989265 0.218069
vt 0.004071 0.599283
vt 0.988499 0.587202
vt 0.005544 0.499887
vt 0.989265 0.458584
vt 0.988708 0.252424
vt 0.004499 0.242012
vt 0.988220 0.621562
vt 0.003937 0.619120
vt 0.988499 0.269603
vt 0.004258 0.261848
vt 0.988151 0.638742
vt 0.003857 0.638957
vt 0.988337 0.286782
vt 0.004071 0.281684
vt 0.988128 0.655923
vt 0.003830 0.658794
vt 0.988221 0.303962
vt 0.003937 0.301521
vt 0.988151 0.673103
vt 0.003857 0.678632
vt 0.988152 0.321143
vt 0.003857 0.321358
vt 0.988220 0.690284
vt 0.003937 0.698470
vt 0.988128 0.338323
vt 0.003830 0.341195
vt 0.988336 0.707465
vt 0.988152 0.355504
vt 0.445970 0.752836
vt 0.382935 0.914670
vt 0.382935 0.730382
vt 0.140221 0.678874
vt 0.185130 0.345993
vt 0.185130 0.677487
vt 0.253476 0.750432
vt 0.189007 0.915950
vt 0.189007 0.727467
vt 0.374717 0.339403
vt 0.417743 0.658327
vt 0.374717 0.656998
vt 0.836851 0.648860
vt 0.740541 0.331650
vt 0.819545 0.331650
vt 0.539443 0.333588
vt 0.635752 0.650798
vt 0.522137 0.650798
vt 0.331691 0.658327
vt 0.312841 0.341315
vt 0.124537 0.892986
vt 0.124537 0.750432
vt 0.230039 0.678874
vt 0.249714 0.347989
vt 0.319900 0.892217
vt 0.319900 0.752836
vt 0.989612 0.518492
vt 0.989612 0.793362
vt 0.988963 0.235246
vt 0.988336 0.604382
vt 0.989612 0.475762
vt 0.445970 0.892217
vt 0.120546 0.347989
vt 0.253476 0.892986
vt 0.436593 0.341315
vt 0.723235 0.648860
vt 0.618447 0.333588
vn -0.7064 0.0435 0.7064
vn -0.8307 0.0435 0.5550
vn 0.9230 0.0435 -0.3823
vn 0.9798 0.0435 -0.1949
vn -0.5550 0.0435 0.8307
vn 0.8307 0.0435 -0.5550
vn -0.3823 0.0435 0.9230
vn -0.1949 0.0435 -0.9798
vn 0.0000 0.0435 -0.9990
vn 0.7064 0.0435 -0.7064
vn -0.1949 0.0435 0.9798
vn -0.3823 0.0435 -0.9230
vn 0.5550 0.0435 -0.8307
vn 0.0000 0.0435 0.9990
vn -0.5550 0.0435 -0.8307
vn 0.3823 0.0435 -0.9230
vn 0.1949 0.0435 0.9798
vn -0.7064 0.0435 -0.7064
vn 0.1949 0.0435 -0.9798
vn 0.3823 0.0435 0.9230
vn -0.8307 0.0435 -0.5550
vn 0.5550 0.0435 0.8307
vn -0.9230 0.0435 -0.3823
vn 0.7064 0.0435 0.7064
vn -0.9798 0.0435 -0.1949
vn 0.8307 0.0435 0.5550
vn -0.9990 0.0435 0.0000
vn 0.9230 0.0435 0.3823
vn -0.9798 0.0435 0.1949
vn 0.9798 0.0435 0.1949
vn -0.9230 0.0435 0.3823
vn 0.9990 0.0435 0.0000
vn -0.6300 0.6240 0.4623
vn -0.6805 0.0000 -0.7327
vn -0.6805 0.0000 0.7327
vn -0.6300 0.6240 -0.4623
vn 0.6157 0.0000 -0.7880
vn 0.5577 0.6632 -0.4991
vn 0.6157 0.0000 0.7880
vn 0.5577 -0.6632 -0.4991
vn -0.6300 -0.6240 0.4623
vn -0.6300 -0.6240 -0.4623
vn 0.5577 0.6632 0.4991
vn 0.5577 -0.6632 0.4991
s 1
f 45/1/1 12/2/2 13/3/1
f 59/4/3 26/5/4 27/6/3
f 46/7/5 13/3/1 14/8/5
f 60/9/6 27/6/3 28/10/6
f 15/11/7 46/7/5 14/8/5
f 34/12/8 1/13/9 2/14/8
f 61/15/10 28/10/6 29/16/10
f 16/17/11 47/18/7 15/11/7
f 35/19/12 2/14/8 3/20/12
f 62/21/13 29/16/10 30/22/13
f 17/23/14 48/24/11 16/17/11
f 36/25/15 3/20/12 4/26/15
f 63/27/16 30/22/13 31/28/16
f 18/29/17 49/30/14 17/31/14
f 5/32/18 36/25/15 4/26/15
f 32/33/19 63/27/16 31/28/16
f 19/34/20 50/35/17 18/29/17
f 6/36/21 37/37/18 5/32/18
f 1/38/9 64/39/19 32/33/19
f 52/40/22 19/34/20 20/41/22
f 39/42/23 6/36/21 7/43/23
f 53/44/24 20/41/22 21/45/24
f 40/46/25 7/43/23 8/47/25
f 54/48/26 21/45/24 22/49/26
f 41/50/27 8/47/25 9/51/27
f 55/52/28 22/49/26 23/53/28
f 42/54/29 9/51/27 10/55/29
f 56/56/30 23/53/28 24/57/30
f 43/58/31 10/55/29 11/59/31
f 57/60/32 24/57/30 25/61/32
f 44/62/2 11/59/31 12/2/2
f 58/63/4 25/61/32 26/5/4
f 66/64/33 74/65/34 73/66/35
f 68/67/36 75/68/37 74/69/34
f 72/70/38 76/71/39 75/72/37
f 76/73/39 66/74/33 73/75/35
f 71/76/40 65/77/41 67/78/42
f 68/79/36 70/80/43 72/81/38
f 76/73/39 65/82/41 69/83/44
f 75/72/37 69/84/44 71/85/40
f 67/86/42 75/68/37 71/87/40
f 73/66/35 67/88/42 65/89/41
f 45/1/1 44/62/2 12/2/2
f 59/4/3 58/63/4 26/5/4
f 46/7/5 45/1/1 13/3/1
f 60/9/6 59/4/3 27/6/3
f 15/11/7 47/18/7 46/7/5
f 34/12/8 33/90/9 1/13/9
f 61/15/10 60/9/6 28/10/6
f 16/17/11 48/24/11 47/18/7
f 35/19/12 34/12/8 2/14/8
f 62/21/13 61/15/10 29/16/10
f 17/23/14 49/91/14 48/24/11
f 36/25/15 35/19/12 3/20/12
f 63/27/16 62/21/13 30/22/13
f 18/29/17 50/35/17 49/30/14
f 5/32/18 37/37/18 36/25/15
f 32/33/19 64/39/19 63/27/16
f 19/34/20 51/92/20 50/35/17
f 6/36/21 38/93/21 37/37/18
f 1/38/9 33/94/9 64/39/19
f 52/40/22 51/92/20 19/34/20
f 39/42/23 38/93/21 6/36/21
f 53/44/24 52/40/22 20/41/22
f 40/46/25 39/42/23 7/43/23
f 54/48/26 53/44/24 21/45/24
f 41/50/27 40/46/25 8/47/25
f 55/52/28 54/48/26 22/49/26
f 42/54/29 41/50/27 9/51/27
f 56/56/30 55/52/28 23/53/28
f 43/58/31 42/54/29 10/55/29
f 57/60/32 56/56/30 24/57/30
f 44/62/2 43/58/31 11/59/31
f 58/63/4 57/60/32 25/61/32
f 66/64/33 68/95/36 74/65/34
f 68/67/36 72/96/38 75/68/37
f 72/70/38 70/97/43 76/71/39
f 76/73/39 70/98/43 66/74/33
f 71/76/40 69/99/44 65/77/41
f 68/79/36 66/100/33 70/80/43
f 76/73/39 73/75/35 65/82/41
f 75/72/37 76/71/39 69/84/44
f 67/86/42 74/69/34 75/68/37
f 73/66/35 74/65/34 67/88/42
